{
	"asset":{
		"generator":"Khronos glTF Blender I/O v4.2.60",
		"version":"2.0"
	},
	"scene":0,
	"scenes":[
		{
			"name":"Scene",
			"nodes":[
				0,
				1,
				2
			]
		}
	],
	"nodes":[
		{
			"mesh":0,
			"name":"Building -col",
			"translation":[
				0,
				1,
				0
			]
		},
		{
			"mesh":1,
			"name":"Column -col",
			"translation":[
				4.321041107177734,
				3.004457473754883,
				-0.579241931438446
			]
		},
		{
			"mesh":2,
			"name":"Stand-col",
			"translation":[
				-0.1143026351928711,
				2.0018796920776367,
				-26.43022918701172
			]
		}
	],
	"materials":[
		{
			"doubleSided":true,
			"name":"BSS",
			"pbrMetallicRoughness":{
				"baseColorFactor":[
					0.800000011920929,
					0.800000011920929,
					0.800000011920929,
					1
				],
				"metallicFactor":0,
				"roughnessFactor":0.5
			}
		}
	],
	"meshes":[
		{
			"name":"Cube.002",
			"primitives":[
				{
					"attributes":{
						"POSITION":0,
						"NORMAL":1,
						"TEXCOORD_0":2
					},
					"indices":3,
					"material":0
				}
			]
		},
		{
			"name":"Cylinder.005",
			"primitives":[
				{
					"attributes":{
						"POSITION":4,
						"NORMAL":5,
						"TEXCOORD_0":6
					},
					"indices":7,
					"material":0
				}
			]
		},
		{
			"name":"Cylinder.002",
			"primitives":[
				{
					"attributes":{
						"POSITION":8,
						"NORMAL":9,
						"TEXCOORD_0":10
					},
					"indices":11,
					"material":0
				}
			]
		}
	],
	"accessors":[
		{
			"bufferView":0,
			"componentType":5126,
			"count":501,
			"max":[
				22.19784164428711,
				22,
				10
			],
			"min":[
				-20.1394100189209,
				-1,
				-38.110191345214844
			],
			"type":"VEC3"
		},
		{
			"bufferView":1,
			"componentType":5126,
			"count":501,
			"type":"VEC3"
		},
		{
			"bufferView":2,
			"componentType":5126,
			"count":501,
			"type":"VEC2"
		},
		{
			"bufferView":3,
			"componentType":5123,
			"count":1131,
			"type":"SCALAR"
		},
		{
			"bufferView":4,
			"componentType":5126,
			"count":1872,
			"max":[
				15.82387924194336,
				17,
				0.9238795042037964
			],
			"min":[
				-22.623882293701172,
				-1,
				-35.92387771606445
			],
			"type":"VEC3"
		},
		{
			"bufferView":5,
			"componentType":5126,
			"count":1872,
			"type":"VEC3"
		},
		{
			"bufferView":6,
			"componentType":5126,
			"count":1872,
			"type":"VEC2"
		},
		{
			"bufferView":7,
			"componentType":5123,
			"count":3276,
			"type":"SCALAR"
		},
		{
			"bufferView":8,
			"componentType":5126,
			"count":80,
			"max":[
				4.422931671142578,
				1,
				4.422931671142578
			],
			"min":[
				-4.422931671142578,
				-1,
				-4.422931671142578
			],
			"type":"VEC3"
		},
		{
			"bufferView":9,
			"componentType":5126,
			"count":80,
			"type":"VEC3"
		},
		{
			"bufferView":10,
			"componentType":5126,
			"count":80,
			"type":"VEC2"
		},
		{
			"bufferView":11,
			"componentType":5123,
			"count":138,
			"type":"SCALAR"
		}
	],
	"bufferViews":[
		{
			"buffer":0,
			"byteLength":6012,
			"byteOffset":0,
			"target":34962
		},
		{
			"buffer":0,
			"byteLength":6012,
			"byteOffset":6012,
			"target":34962
		},
		{
			"buffer":0,
			"byteLength":4008,
			"byteOffset":12024,
			"target":34962
		},
		{
			"buffer":0,
			"byteLength":2262,
			"byteOffset":16032,
			"target":34963
		},
		{
			"buffer":0,
			"byteLength":22464,
			"byteOffset":18296,
			"target":34962
		},
		{
			"buffer":0,
			"byteLength":22464,
			"byteOffset":40760,
			"target":34962
		},
		{
			"buffer":0,
			"byteLength":14976,
			"byteOffset":63224,
			"target":34962
		},
		{
			"buffer":0,
			"byteLength":6552,
			"byteOffset":78200,
			"target":34963
		},
		{
			"buffer":0,
			"byteLength":960,
			"byteOffset":84752,
			"target":34962
		},
		{
			"buffer":0,
			"byteLength":960,
			"byteOffset":85712,
			"target":34962
		},
		{
			"buffer":0,
			"byteLength":640,
			"byteOffset":86672,
			"target":34962
		},
		{
			"buffer":0,
			"byteLength":276,
			"byteOffset":87312,
			"target":34963
		}
	],
	"buffers":[
		{
			"byteLength":87588,
			"uri":"Buidling1.bin"
		}
	]
}
